# xmcd
#
# Track frame offsets:
#	150
#	11325
#	23959
#	34756
#	44554
#	57021
#	72267
#	81511
#	93892
#	113857
#	127023
#	137530
#	151686
#	162850
#	178341
#	193496
#	205392
#	217053
#	226544
#	239921
#	249475
#	259292
#
# Disc length: 3613
#
# Revision: 3
# Processed by: cddbd v1.5.1PL0 Copyright (c) Steve Scherf et al.
# Submitted via: Kscd 1.3.3
# Normalized: r2:DSETVAR1,TDELIM( - )
#
DISCID=3f0e1b16
DTITLE=Various Artist - The Allen Toussant Touch
DYEAR=1900
DGENRE=
TTITLE0=Aaron Neville - I'm Waiting At The Station
TTITLE1=Aaron Neville - Wrong Number
TTITLE2=Benny Spellman - Lipstick Traces
TTITLE3=Benny Spellman - Fortune Teller
TTITLE4=Ernie K-Doe - A Certain Girl
TTITLE5=Ernie K-Doe - T'Ain't It The Truth
TTITLE6=Irma Thomas - It's Raining
TTITLE7=Irma Thomas - Ruler of My Heart
TTITLE8=Jessie Hill - Ooh Poo Pah Doo
TTITLE9=Jessie Hill - Scoop Scoobie Doobie
TTITLE10=Chick Carbo - In The Night
TTITLE11=Art Neville - All These Things
TTITLE12=Curly Moore - Get Low Down
TTITLE13=John Williams - Blues Tears Sorrow
TTITLE14=Willie West - Fair Child
TTITLE15=Sonny Fisher - Oh Love This Is Sonny
TTITLE16=Willie Harper - Here Comes The Hurt Again
TTITLE17=Eldridge Holmes - Lovely Woman
TTITLE18=Warren Lee - Star Revue
TTITLE19=Diamond Joe - Gossip Gossip
TTITLE20=Zilla Mayes - All I Want Is You
TTITLE21=The Stokes - Whipped Cream
EXTD=
EXTT0=
EXTT1=
EXTT2=
EXTT3=
EXTT4=
EXTT5=
EXTT6=
EXTT7=
EXTT8=
EXTT9=
EXTT10=
EXTT11=
EXTT12=
EXTT13=
EXTT14=
EXTT15=
EXTT16=
EXTT17=
EXTT18=
EXTT19=
EXTT20=
EXTT21=
PLAYORDER=
